<?xml version="1.0" encoding="iso-8859-1"?>
<!-- Uploaded to: SVG Repo, www.svgrepo.com, Generator: SVG Repo Mixer Tools -->
<svg fill="#000000" height="800px" width="800px" version="1.1" id="Layer_1" xmlns="http://www.w3.org/2000/svg" xmlns:xlink="http://www.w3.org/1999/xlink" 
	 viewBox="0 0 512 512" xml:space="preserve">
<g>
	<g>
		<circle cx="255.996" cy="45.728" r="8.69"/>
	</g>
</g>
<g>
	<g>
		<path d="M478.457,266.429h-0.005c0-4.799-3.89-8.69-8.69-8.69s-8.69,3.891-8.69,8.69v54.94H50.923v-34.121
			c0-39.096,31.807-70.903,70.903-70.903h71.13c16.537,0,29.991-13.453,29.991-29.991V50.43c0-18.225,14.828-33.05,33.051-33.05
			c18.224,0,33.05,14.826,33.05,33.05v135.922c0,16.537,13.453,29.991,29.991,29.991h71.131c15.715,0,30.598,5.033,43.044,14.556
			c3.812,2.916,9.267,2.19,12.182-1.621c2.918-3.812,2.192-9.266-1.62-12.182c-15.504-11.863-34.041-18.133-53.606-18.133H319.04
			c-6.953,0-12.611-5.657-12.611-12.611V50.43c0-27.808-22.623-50.43-50.43-50.43c-27.808,0-50.431,22.623-50.431,50.43v135.922
			c0,6.953-5.658,12.611-12.611,12.611h-71.13c-48.68,0-88.283,39.604-88.283,88.283v42.811c0,0.918,0.145,1.802,0.409,2.633
			v170.619c0,4.799,3.89,8.69,8.69,8.69s8.69-3.891,8.69-8.69v-164.56h21.449V503.31c0,4.799,3.89,8.69,8.69,8.69
			c4.8,0,8.69-3.891,8.69-8.69V338.749h21.449v164.46c0,4.799,3.89,8.69,8.69,8.69s8.69-3.891,8.69-8.69v-164.46h21.449v164.46
			c0,4.799,3.89,8.69,8.69,8.69s8.69-3.891,8.69-8.69v-164.46h21.449v164.46c0,4.799,3.89,8.69,8.69,8.69s8.69-3.891,8.69-8.69
			v-164.46H228.1v164.46c0,4.799,3.89,8.69,8.69,8.69c4.8,0,8.69-3.891,8.69-8.69v-164.46h21.449V503.31
			c0,4.799,3.89,8.69,8.69,8.69s8.69-3.891,8.69-8.69V338.749h21.449V503.31c0,4.799,3.89,8.69,8.69,8.69s8.69-3.891,8.69-8.69
			V338.749h21.449v164.46c0,4.799,3.89,8.69,8.69,8.69c4.8,0,8.69-3.891,8.69-8.69v-164.46h21.449v164.46
			c0,4.799,3.89,8.69,8.69,8.69s8.69-3.891,8.69-8.69v-164.46h21.449v164.46c0,4.799,3.89,8.69,8.69,8.69s8.69-3.891,8.69-8.69
			v-164.46h21.449v164.46c0,4.799,3.89,8.69,8.69,8.69s8.69-3.891,8.69-8.69V330.426c0-0.063-0.008-0.122-0.009-0.184
			c0.001-0.061,0.009-0.122,0.009-0.184V266.429z"/>
	</g>
</g>
<g>
	<g>
		<path d="M416.291,282.003H81.047c-4.8,0-8.69,3.891-8.69,8.69s3.89,8.69,8.69,8.69h335.244c4.8,0,8.69-3.891,8.69-8.69
			S421.091,282.003,416.291,282.003z"/>
	</g>
</g>
</svg>